<?xml version="1.0" standalone="no"?>
<svg viewBox="-350 -150 1500 1500" style="width: 390px; height: 390px; justify-content: center; align-self: center; transform: scale(1, 1);" width="390" height="390" xmlns="http://www.w3.org/2000/svg"><rect x="-350" y="-150" width="100%" height="100%" fill="#a4a6d5" rx="30"></rect><g transform="rotate(0 410.5864505767822 598.6101016998291)"><g transform="translate(0 459)"><path d="M748.281 585.022C744.25 562.258 740.555 539.434 737.197 516.56C735.603 505.7 734.049 494.83 732.65 483.942C731.671 476.314 730.18 467.591 735.37 461.942C742.673 453.99 749.307 447.184 750.201 435.793C751.042 425.076 747.418 413.393 745.152 402.99C740.4 381.174 734.484 359.628 727.948 338.286C721.306 316.603 714.024 295.124 706.637 273.686C699.731 253.642 693.092 233.417 684.097 214.186C667.026 177.691 638.146 150.664 602.454 132.618C593.578 128.13 575.472 112.108 566.198 108.521C557.672 105.223 557.703 114.854 549.311 111.226C542.603 108.326 536.357 104.459 532.601 97.9817C528.523 90.9492 518.297 81.1132 516.74 72.9271C513.441 55.5756 517.014 40.8073 504.63 27.7476C493.637 16.1509 478.859 8.20616 463.569 3.94138C429.933 -5.44032 385.075 1.11856 364.781 32.3739C355.088 47.3001 351.701 65.3415 338.622 77.523C327.202 88.1594 329.757 95.4313 314.965 100.913C314.127 101.224 291.42 96.3534 290.582 96.6648C274.4 93.2021 258.934 102.895 244.087 108.521C221.954 116.905 200.883 127.819 181.085 140.79C141.166 166.945 106.976 200.908 78.7895 239.341C50.3695 278.091 28.3185 321.523 12.6175 366.917C8.8045 377.943 5.3795 389.103 2.3585 400.372C0.667503 406.679 -1.1395 413.221 0.919503 419.677C2.6035 424.96 6.3495 428.893 10.7485 432.062C16.7115 436.359 28.6725 439.152 28.4395 447.794C28.2615 454.364 26.0325 461.279 24.9445 467.772C23.6495 475.504 22.5855 483.282 21.5215 491.048C16.6815 526.398 12.9145 561.947 11.2485 597.597C9.6085 632.699 8.2475 668.518 10.6825 703.61C10.8435 705.924 11.5335 708.048 12.6465 709.843C11.6075 710.241 11.5275 712.178 12.8205 712.452C13.7265 712.644 14.6305 712.835 15.5365 713.028C17.4185 714.452 19.7655 715.325 22.4665 715.41C24.2975 715.468 26.1275 715.55 27.9565 715.644C47.2575 719.679 66.5555 723.49 86.1085 726.376C109.876 729.883 133.714 732.743 157.626 735.069C206.762 739.845 255.51 738.261 304.71 735.686C353.833 733.115 402.928 732.514 452.104 733.793C501.322 735.074 550.521 737.214 599.75 738.091C654.75 739.068 709.664 737.566 764.504 733.194C772.023 732.595 776.675 726.613 775.193 719.145C766.307 674.402 756.238 629.958 748.281 585.022Z" transform="translate(25.9997 -31.99965)" fill="#FFFFFF" stroke="none"></path><path d="M387.499 11.4142C390.401 2.82024 378.393 -3.89576 372.349 2.59424C368.625 6.5925 367.134 11.7389 365.35 16.7859L364.976 17.8282C363.504 21.8572 361.659 25.7562 359.605 29.5212C355.317 37.3812 349.885 44.6692 343.661 51.1022C330.891 64.2992 314.162 73.6282 297.126 80.2062C296.582 80.4162 296.353 80.8962 296.408 81.3372C295.593 80.2272 294.779 79.1172 293.969 78.0072C293.529 77.4062 292.433 77.7312 292.683 78.5492C307.284 126.366 348.611 165.008 395.354 181.324C443.676 198.192 499.563 190.729 537.318 154.758C556.111 136.853 569.596 112.78 573.128 86.9302C573.281 85.8062 573.244 84.7832 573.07 83.8542C589.682 97.8742 607.105 110.89 623.392 125.306C642.416 142.146 660.893 160.15 676.08 180.597C691.487 201.344 703.101 224.254 710.862 248.896C718.244 272.335 722.639 296.55 726.714 320.754L728.773 333.051C733.39 360.393 738.797 387.342 746.69 413.895C737.862 416.725 729.065 419.643 720.268 422.581L703.534 428.171C699.095 429.654 694.083 432.097 689.427 433.074C686.213 432.549 683.001 433.893 680.87 436.224C679.693 417.484 678.804 398.731 678.163 379.989C677.675 365.731 677.406 351.456 676.792 337.203C676.149 322.266 674.837 307.385 674 292.487C673.972 291.992 673.312 292.019 673.25 292.487C671.482 305.775 669.502 318.924 668.55 332.341C667.61 345.596 667.176 358.922 667.064 372.21C666.845 398.134 667.226 424.054 668.459 449.951C670.957 502.44 675.903 554.844 683.698 606.813C685.91 621.565 688.387 636.273 691.074 650.945C692.359 657.961 693.69 664.967 695.067 671.965C695.813 675.756 696.399 679.664 697.363 683.407C698.424 687.528 700.305 689.488 703.911 691.751C706.634 693.458 709.993 692.188 711.672 689.715C713.717 686.704 714.725 684.452 714.153 680.792C713.653 677.596 712.89 674.423 712.249 671.253C710.963 664.899 709.715 658.539 708.506 652.17C706.087 639.434 703.86 626.664 701.693 613.882C697.317 588.069 693.612 562.138 690.27 536.172C686.597 507.635 683.841 478.952 681.805 450.219C683.505 451.871 685.707 452.78 688.595 453.134C693.024 453.676 698.063 451.574 702.619 449.672C704.131 449.041 705.591 448.432 706.957 447.949L729.068 440.133L733.599 438.524C733.796 452.029 735.189 465.691 736.329 479.016L737.23 489.544C738.431 503.58 739.62 517.614 740.743 531.659C743.273 563.319 748.278 594.839 753.548 626.168L755.084 635.258C756.728 644.966 758.412 654.666 760.136 664.359C760.998 669.204 761.911 674.035 762.874 678.86C763.376 681.377 763.653 684.129 764.421 686.572C765.634 690.43 768.314 692.026 771.734 693.626L772.364 693.917C774.279 694.795 776.538 694.785 778.101 693.176C780 691.222 782.127 689.297 782.876 686.572C783.482 684.366 783.039 682.092 782.607 679.878C782.571 679.693 782.535 679.509 782.5 679.325L782.361 678.574C781.562 674.048 780.803 669.514 779.966 664.994C778.412 656.612 776.814 648.238 775.283 639.852C772.103 622.438 769.231 604.968 766.048 587.556C759.822 553.502 752.561 519.621 746.635 485.522C743.847 469.48 741.578 452.964 737.857 437.001C745.435 434.291 753.001 431.547 760.539 428.713C766.576 426.444 768.474 421.032 766.012 415.261C756.494 392.953 751.784 368.499 747.568 344.518L744.786 328.601C740.269 302.624 735.99 276.525 728.532 251.196C713.337 199.588 681.976 155.763 640.12 122.239C619.88 106.029 598.373 91.4176 575.021 80.2078L574.877 80.1399C573.354 79.4342 569.422 77.9608 566.075 77.8262C562.616 77.6872 559.081 79.9082 558.488 84.9492L558.476 85.0312L558.046 84.5732C555.701 82.1876 552.534 80.6843 549.918 78.6052C547.233 76.4712 544.746 74.0392 542.452 71.4942C538.165 66.7372 534.643 61.1932 531.705 55.5132C525.701 43.9051 523.856 31.5877 522.375 18.8544L522.083 16.3022C521.897 14.6672 519.711 13.7282 518.763 15.4032C511.081 28.9902 512.885 47.0492 518.511 61.0752C521.585 68.7392 525.779 75.5192 531.149 81.7982C536.113 87.6022 543.733 95.6972 551.43 97.3682C553.229 97.7592 554.868 97.5482 556.247 96.9302C546.627 134.346 513.917 163.705 476.789 173.126C429.599 185.101 380.729 168.267 344.836 137.056C327.219 121.738 312.603 103.256 298.749 84.5149L296.984 82.1212C297.105 82.1782 297.242 82.2182 297.4 82.2322C317.878 83.9632 336.893 75.8522 352.839 63.3622C369.803 50.0762 380.673 31.6332 387.499 11.4142ZM294.039 69.283C290.11 68.8407 286.143 68.3941 282.235 68.5639C277.201 68.7829 272.184 69.1039 267.174 69.6639C257.886 70.7039 248.234 73.2299 239.363 76.1339C220.384 82.3479 202.438 91.1369 185.598 101.841C151.152 123.735 121.762 152.927 96.8833 185.117C69.2443 220.878 46.6173 260.429 29.0873 302.061C20.3323 322.856 12.8513 344.171 6.80127 365.91C5.30927 371.271 3.89527 376.655 2.58227 382.063L2.46597 382.535C2.28315 383.268 2.08773 384.013 1.8899 384.768C0.638578 389.539 -0.708997 394.677 0.429273 399.431C1.61127 404.372 5.27327 407.72 9.51927 410.161C14.8713 413.238 20.5643 415.854 26.0703 418.642C29.1743 420.214 32.2903 421.779 35.4153 423.333C27.3894 448.456 23.4478 475.129 19.8575 501.21L17.9349 515.239C13.0099 551.581 9.2414 588.071 7.35527 624.707C6.81627 635.186 6.37327 645.67 6.02627 656.157C5.85327 661.4 5.70427 666.644 5.58027 671.889C5.56362 672.584 5.53772 673.28 5.51188 673.975C5.30647 679.496 5.10421 684.932 9.57027 689.045C13.3263 692.503 18.4523 692.328 22.2473 689.045C25.9836 685.812 26.4351 681.699 26.5475 677.258L26.6849 670.25C26.7509 667.191 26.8256 664.132 26.9083 661.073C27.1553 651.896 27.4773 642.722 27.8723 633.55C28.6763 614.888 29.5993 596.228 30.8673 577.591C33.3783 540.691 36.7333 503.919 40.5383 467.133C41.9013 453.951 43.3093 440.738 43.8923 427.501C84.1703 447.059 126.391 463.798 171.584 465.255C170.254 479.823 168.962 494.392 167.766 508.974C164.391 550.087 160.742 591.17 157.57 632.301C156.702 643.571 155.855 654.841 155.066 666.117C154.819 669.642 154.514 673.182 154.208 676.728C153.484 685.123 152.756 693.557 152.794 701.921C152.815 706.432 156.252 710.367 160.72 710.899C164.758 711.379 170.09 708.903 170.749 704.351C173.706 683.928 174.125 662.84 175.42 642.247C176.713 621.695 178.145 601.146 179.253 580.583C181.466 539.477 183.956 498.378 185.831 457.256C186.89 434.038 187.86 410.747 184.825 387.636C184.703 386.704 183.368 386.35 183.075 387.399C177.627 406.921 175.131 427.169 173.229 447.31L172.895 450.953C130.234 449.862 89.7267 434.102 51.8161 415.517L49.4983 414.376C48.0121 413.642 33.1923 406.104 24.2954 401.519L19.7343 399.154C18.3833 398.446 15.4753 397.605 14.7273 396.244C14.067 395.042 14.8618 392.431 15.411 390.627C15.5655 390.119 15.7005 389.675 15.7783 389.345C16.9843 384.212 18.2563 379.095 19.6083 373.998C25.1683 353.049 32.0323 332.447 40.1333 312.345C69.9633 238.324 117.233 166.83 182.545 119.609C199.506 107.346 217.935 96.6719 237.339 88.7639C247.075 84.7959 256.837 81.7269 266.894 78.7519L270.713 77.6218C279.631 74.9862 288.613 72.3909 297.693 70.4939C298.191 70.3899 298.023 69.7079 297.581 69.6649C296.406 69.5493 295.224 69.4164 294.039 69.283Z" transform="translate(19.00033 -4.999743)" fill="#000000" fill-rule="evenodd" stroke="none"></path></g><g transform="translate(225 0)"><g><g><path d="M395.901 175.053C392.111 112.851 371.927 42.3305 312.523 11.7905C181.564 -40.7675 9.3796 91.5885 0.263603 226.8C-2.9144 273.085 22.7836 323.66 69.7446 336.527C80.1856 350.36 95.9756 358.809 111.561 366.141C297.188 462.448 417.095 384.16 395.901 175.053L395.901 175.053Z" transform="translate(36 94.99951)" fill="#FFFFFF" stroke="none"></path><path d="M559.189 199.517C552.629 181.297 545.699 163.217 538.409 145.277C531.309 127.817 524.896 109.98 516.079 93.3471C463.419 -5.99291 367.659 -5.99291 318.159 6.98709C292.489 -4.07291 244.408 -0.95317 217.679 9.02709C174.407 25.1841 121.658 88.7421 103.623 117.298C63.8039 180.347 38.9539 264.264 65.4039 337.12C68.8609 346.642 73.2699 355.461 78.2339 363.96C75.1069 368.198 71.5079 372.212 67.5209 376.156C55.6729 387.878 43.8249 399.214 33.5899 412.435C23.4189 425.574 14.9869 439.546 8.70993 454.951C-3.12608 484.003 -3.69607 516.899 11.9519 544.62C25.5659 568.74 49.6829 586.701 76.8539 588.414C78.2489 588.608 79.6459 588.786 81.0489 588.927C84.6489 594.857 89.0389 600.317 94.0489 605.077C109.399 619.677 145.989 627.167 166.859 627.647C167.929 628.507 169.009 629.367 170.089 630.217C182.859 640.267 196.259 650.407 210.919 657.557C220.849 662.407 233.869 666.457 244.229 662.957C248.929 666.097 256.639 665.437 261.299 662.867C268.959 658.647 275.189 651.047 278.979 643.267C288.169 624.377 285.959 603.707 283.599 583.527C280.999 561.237 278.499 538.937 275.959 516.647C273.969 499.217 271.889 481.497 266.589 464.707C263.849 456.007 260.259 447.647 255.619 439.787C255.739 439.127 255.719 438.467 255.529 437.847C254.009 432.907 250.869 430.317 247.149 426.957C246.669 426.527 246.189 426.087 245.719 425.637C243.859 423.517 241.869 421.547 239.739 419.877C238.919 419.047 238.109 418.207 237.299 417.367C230.569 410.317 224.209 402.907 218.559 394.967C213.079 387.267 208.129 379.227 203.419 371.037C198.629 362.707 195.459 353.517 190.679 345.247C190.269 344.537 189.229 344.397 188.649 344.987C187.169 346.517 186.219 348.217 186.399 350.007L185.659 350.117C185.379 347.417 182.889 345.217 179.509 345.807C174.449 346.687 170.289 347.017 165.909 345.337C166.679 340.227 167.389 335.107 168.089 329.977C169.369 320.537 170.559 311.067 171.579 301.597C174.049 302.187 176.499 303.037 178.899 304.117C182.319 305.647 185.549 307.707 188.309 310.237C191.029 312.737 192.909 316.107 196.229 317.847C200.049 319.837 204.659 316.547 203.539 312.227C201.269 303.497 188.419 298.497 180.469 296.847C177.739 296.277 174.949 296.037 172.159 296.097C172.789 290.017 173.349 283.937 173.809 277.847C174.029 274.967 174.229 272.087 174.419 269.197C180.599 267.327 187.219 266.767 193.649 267.647C195.769 269.337 197.889 271.007 199.939 272.697C206.449 278.077 212.929 283.487 219.329 288.997C219.909 289.487 220.479 289.977 221.059 290.477C224.859 293.747 229.599 290.507 228.959 285.877C223.739 247.937 246.979 217.757 274.189 194.377C304.309 168.487 359.069 165.472 394.889 120.627C411.386 123.985 448.219 133.957 463.419 158.177C484.699 192.117 481.919 222.527 483.539 261.027C485.159 299.557 489.279 339.747 480.529 377.737C472.459 412.767 450.609 442.697 416.709 456.457C415.869 456.797 415.019 457.127 414.169 457.447C396.639 464.057 377.509 465.927 359.069 462.447C338.659 458.587 321.619 449.247 304.639 437.757C303.659 437.107 302.229 438.447 302.969 439.427C325.349 469.087 369.309 478.997 404.179 471.167C405.809 470.797 407.429 470.397 409.039 469.957C401.239 492.387 402.809 517.007 412.969 538.847C419.079 551.987 428.399 563.357 439.749 572.327C452.259 582.207 467.779 590.187 476.459 604.057C484.409 616.767 482.049 631.047 468.439 638.387C465.009 640.247 463.689 646.257 467.089 648.897C468.389 649.897 469.689 650.917 471.019 651.917C478.639 657.667 499.569 668.467 502.959 668.867C533.059 672.437 553.299 650.337 566.269 624.267C581.499 593.667 577.539 556.377 560.759 527.237C547.299 503.857 520.789 480.817 531.329 451.227C535.089 440.657 542.779 431.647 550.249 423.507C558.769 414.237 567.929 405.557 576.099 395.957C584.219 386.427 591.419 376.057 595.439 364.097C601.309 346.617 598.389 327.717 593.979 310.267C584.529 272.807 572.259 235.847 559.189 199.517Z" transform="translate(-84.99982 31.84301)" fill="#000000" stroke="none"></path></g></g><g transform="translate(159 186)"><g><path d="M175.373 49.5872C175.699 49.4437 175.991 49.2049 176.203 48.8583C178.978 44.3099 179.267 38.8813 178.039 33.5637C176.563 27.172 172.899 20.9588 168.944 16.7559C163.959 11.4582 157.895 7.75374 151.246 4.94731C150.762 4.74287 150.267 4.53098 149.763 4.31514C142.964 1.40541 134.597 -2.01031 127.865 1.47064C125.161 2.86951 123.673 5.20381 123.256 7.7496C122.814 10.4534 123.597 13.4099 125.462 15.7216C128.557 19.5594 133.339 20.3533 138.087 21.0465C139.602 21.2677 141.106 21.486 142.53 21.8229C147.429 22.9821 152.604 24.4361 157.104 26.7244C166.253 31.3762 170.54 38.5898 172.747 48.2853C172.837 48.6781 173.037 48.9988 173.3 49.2406C173.575 49.4928 173.921 49.6579 174.285 49.7192C174.651 49.7808 175.032 49.7375 175.373 49.5872ZM58.3942 19.1934C55.0693 22.4329 51.1339 22.9347 47.1526 23.381C44.9405 23.6313 43.1746 23.8331 41.4369 24.2252C36.6605 25.3034 31.9393 26.9272 27.6319 29.2659C23.1292 31.7106 18.2224 34.659 14.6922 38.4361C13.8528 39.3349 13.0615 40.278 12.2691 41.2232C11.5465 42.0851 10.8505 42.9149 10.1169 43.7149C9.27449 44.6339 8.47449 45.597 7.67875 46.5576C7.1867 47.3681 7.0895 47.5675 6.99041 47.775C6.8413 48.0869 6.66786 48.4359 6.46976 48.8103C6.19845 49.323 5.88066 49.8843 5.54784 50.3932C4.9941 51.3234 4.69697 51.5796 4.44022 51.6942C4.01419 51.8839 3.61015 51.9774 3.21817 51.9268C2.85064 51.8793 2.50438 51.7028 2.16244 51.4138C0.455387 49.9715 -0.0480658 47.6046 0.00353523 45.092C0.0818393 41.2793 1.48813 37.0578 2.78452 34.4628C5.79888 28.4331 9.97938 22.1649 15.0062 17.6646C20.7422 12.5276 27.0177 8.63869 34.2256 5.95894C38.705 4.29304 43.8913 2.76391 48.7713 2.95706C52.284 3.09609 55.6373 4.14026 58.4066 6.74782C60.1072 8.34853 60.9235 10.6254 60.9235 12.9006C60.9235 15.2211 60.0757 17.5554 58.3942 19.1934ZM164.634 78.3299C166.478 78.8824 167.779 78.6212 169.441 77.7551C170.719 77.0896 171.589 76.0387 172.088 74.8117C172.599 73.5559 172.706 72.1077 172.454 70.7659C171.405 65.1948 168.042 60.2513 163.503 57.0672C159.091 53.9728 153.589 52.5435 148.048 53.7341C144.003 54.6036 138.007 58.4424 134.85 63.1243C133.504 65.1203 132.671 67.2595 132.581 69.3723C132.495 71.387 133.008 73.4183 135.676 76.096C135.935 76.177 136.208 76.2208 136.477 76.2208C137.138 76.2208 137.821 75.9439 138.274 75.5441C139.469 74.4935 140.311 73.1636 141.178 71.7329C141.641 70.9679 142.102 70.1976 142.69 69.5195C144.449 67.4927 147.002 65.7736 149.683 65.3262C152.167 64.911 154.406 65.6469 156.181 67.0355C158.256 68.6601 159.713 71.1522 160.252 73.8146C160.472 74.8933 161.036 75.8657 161.818 76.6477C162.607 77.4367 163.615 78.0237 164.634 78.3299ZM46.1749 69.1109C43.7479 67.5587 40.8928 67.0259 37.7287 68.4655C35.256 69.5899 30.9192 73.3385 27.9011 78.2662C25.8363 81.6374 24.3721 85.5922 24.6769 89.7117C24.7477 90.6684 24.3942 91.3738 23.8366 91.8954C23.3962 92.3073 22.7601 92.61 22.013 92.7047C21.3786 92.785 20.6686 92.7125 20.0913 92.5324C18.9931 92.1896 18.4119 91.4772 18.1929 90.8957C16.0797 85.2836 16.9901 79.0208 19.3585 73.3707C22.5547 65.7456 28.3592 59.3585 32.1622 57.2993C38.6698 53.7742 46.347 53.612 52.8639 57.2031C58.4114 60.2596 61.8802 65.1942 65.3301 70.2242C66.0635 71.2934 66.7914 72.3548 67.5436 73.3976C69.0513 75.487 69.2013 77.5593 68.6175 79.3363C67.9707 81.3049 66.3215 82.9663 64.2592 83.8357C62.353 84.6393 60.1407 84.7524 58.1831 83.9268C56.5293 83.2293 55.0117 81.8695 54.0513 79.5625C52.434 75.6771 49.7393 71.3904 46.1749 69.1109ZM127.748 115.98C135.872 104.601 124.366 93.898 116.814 89.3079C114.836 87.8879 116.406 83.1842 120.634 83.9112C159.031 90.5082 139.136 156.649 90.112 120.354C84.2754 115.645 91.3434 105.275 97.6342 109.307C97.9532 109.552 98.2876 109.81 98.6364 110.08C105.704 115.544 118.636 125.542 127.748 115.98ZM117.042 185.1C109.675 187.233 101.768 187.424 94.2589 185.221C87.4481 183.222 80.4549 178.823 75.4423 173.003C70.9894 167.832 68.1055 161.549 68.2187 154.842C68.2316 154.076 68.5055 153.436 68.9268 152.94C69.3804 152.406 70.014 152.039 70.6926 151.88C71.3906 151.716 72.1285 151.774 72.7568 152.059C73.3256 152.318 73.8129 152.757 74.1176 153.398C74.8879 154.41 75.6553 155.407 76.4257 156.376C82.6196 164.024 88.618 169.74 97.9319 171.79C102.985 172.903 108.032 172.409 112.663 170.712C117.62 168.895 122.102 165.7 125.613 161.612C127.2 159.765 129.074 159.011 130.905 158.998C132.982 158.983 135.034 159.948 136.579 161.49C138.099 163.006 139.116 165.065 139.209 167.219C139.29 169.11 138.673 171.085 137.032 172.848C131.626 178.652 124.621 182.904 117.042 185.1Z" transform="translate(54.00004 55.05923)" fill="#000000" fill-rule="evenodd" stroke="none"></path></g></g><g transform="translate(123 338)"></g><g transform="translate(47 241)"><g><path d="M400.241 22.4717C406.555 19.4817 413.812 19.6607 420.603 20.5487C434.349 26.9267 404.861 34.3147 401.349 27.5287C404.801 52.9717 394.935 94.8897 366.724 108.133C334.13 124.07 298.773 99.8287 300.056 60.9787C293.067 59.2817 297.925 39.7137 300.739 31.7647C288.447 29.8527 276.738 28.7257 264.894 32.4797C271.42 50.8857 248.187 106.288 225.854 117.325C208.541 129.283 169.496 123.951 153.944 105.365C142.844 91.1707 137.3 58.2287 143.442 35.3387C143.388 35.3147 143.332 35.2967 143.279 35.2697C142.912 38.8697 118.056 38.4687 119.298 32.3037C83.5946 32.9447 49.0266 38.4207 13.6856 42.2807C9.41771 42.6777 9.20869 45.7037 9.00443 48.6607C8.82951 51.1931 8.65807 53.675 5.94363 54.4117C-4.52237 54.6617 0.226628 36.3637 9.44663 34.6657C18.2509 33.7459 27.1162 32.5506 36.011 31.3514C64.1217 27.5615 92.5269 23.7319 120.232 28.4287C124.112 23.4993 131.1 25.2524 136.795 26.6809C138.398 27.083 139.898 27.4593 141.198 27.6537C145.902 -0.109269 221.595 1.54173 246.677 12.8057C273.452 9.72473 301.309 7.96173 327.861 5.72573C344.673 0.333732 364.25 -2.44827 381.745 2.80973C384.166 2.67632 384.439 3.06209 384.978 3.82285C385.074 3.95736 385.177 4.10358 385.303 4.26073C392.194 7.30073 398.297 14.2087 400.241 22.4717ZM391.09 53.2827C381.556 117.772 315.002 124.904 303.177 60.8817C305.075 60.0507 306.44 58.4147 306.155 55.2387C306.088 41.2867 310.419 26.5407 323.005 18.7817C336.011 10.7757 351.232 9.98173 366.283 10.1837C395.005 9.49973 394.401 33.5067 391.09 53.2827ZM264.265 30.6657C272.34 25.1737 283.744 24.8557 292.758 25.2357C295.861 25.4177 300.059 25.2717 302.99 26.8347C306.149 20.6497 311.009 15.2997 316.233 11.7387C313.192 11.9693 310.141 12.2092 307.085 12.4496C288.207 13.9342 269.092 15.4374 250.449 14.8917C256.277 18.3047 262.045 24.6877 264.265 30.6657ZM253.026 60.1197C228.031 146.156 165.64 108.656 158.838 97.6297C146.569 79.3837 144.261 35.0297 154.948 23.1707C167.469 14.393 184.251 14.6491 199.84 14.8869C203.297 14.9396 206.695 14.9915 209.975 14.9437C243.176 15.3917 266.756 25.3237 253.026 60.1197Z" transform="translate(-1.999528 9.999668)" fill="#000000" fill-rule="evenodd" stroke="none"></path></g></g></g></g></svg>